<?xml version="1.0" encoding="UTF-8"?>
<svg version="1.1" viewBox="0 0 1600 1600" width="1280" height="1280" xmlns="http://www.w3.org/2000/svg">
<path transform="translate(504 473)" d="m0 0c1.29-0.00258 2.58-0.00516 3.91-0.00781 4.77 0.176 8.42 0.814 12.6 3.13v2c0.577 0.248 1.15 0.495 1.75 0.75 5.39 2.99 8.19 7.58 10.2 13.2 0.545 3.53 0.538 7 0.503 10.6 0.00872 1.57 0.00872 1.57 0.0176 3.17 0.0146 3.51 7.07e-4 7.01-0.013 10.5 0.00461 2.54 0.011 5.07 0.0189 7.61 0.0132 5.52 0.014 11 0.00381 16.6-0.0151 8.21-0.00739 16.4 0.00483 24.6 0.0211 14.7 0.0192 29.3 0.00768 44-0.0101 12.8-0.0127 25.7-0.00791 38.5 3.06e-4 0.851 6.11e-4 1.7 9.26e-4 2.58 0.00125 3.45 0.00252 6.91 0.00384 10.4 0.0122 32.4 0.00114 64.8-0.0204 97.2-0.019 28.8-0.0173 57.6 0.00184 86.3 0.0214 32.3 0.0299 64.7 0.0176 97-0.00128 3.45-0.00253 6.89-0.00377 10.3-4.74e-4 1.27-4.74e-4 1.27-9.59e-4 2.57-0.00455 12.8 7.7e-4 25.6 0.0109 38.4 0.0114 14.6 0.00858 29.1-0.0131 43.7-0.0117 8.16-0.0125 16.3 0.00258 24.5 0.01 6.09-8.48e-4 12.2-0.0199 18.3-0.00447 2.46-0.00218 4.93 0.0075 7.39 0.0122 3.35-3.02e-4 6.69-0.0189 10 0.00936 0.958 0.0187 1.92 0.0284 2.9-0.0715 6.44-1.16 12.3-4.53 17.9-0.99 0.33-1.98 0.66-3 1-0.33 0.99-0.66 1.98-1 3-6.06 4.12-12.4 4.6-19.6 4.44-0.894 0.00709-1.79 0.0142-2.71 0.0215-7.88-0.0749-14.3-1.58-20.2-7.02-0.67-0.599-1.34-1.2-2.03-1.82-1.47-1.62-1.47-1.62-1.47-3.62h-2c-2.68-6.65-3.43-12.4-3.37-19.6-0.00609-1.55-0.00609-1.55-0.0123-3.13-0.00994-3.46 0.00148-6.93 0.0128-10.4-0.00274-2.51-0.00679-5.02-0.012-7.53-0.00838-5.45-0.00745-10.9 0.00173-16.4 0.0136-8.11 0.01-16.2 0.00304-24.3-0.0119-14.5-0.00684-29 0.00528-43.5 0.0105-12.7 0.0151-25.4 0.0137-38-8.4e-5 -0.841-1.68e-4 -1.68-2.55e-4 -2.55-3.52e-4 -3.41-7.36e-4 -6.83-0.00117-10.2-0.00397-32 0.00875-64 0.0295-96.1 0.0184-28.5 0.0242-56.9 0.0187-85.4-3.46e-4 -1.83-6.93e-4 -3.65-0.00104-5.48-2.56e-4 -1.35-2.56e-4 -1.35-5.18e-4 -2.74-8.54e-4 -4.55-0.00168-9.09-0.00247-13.6-1.57e-4 -0.897-3.14e-4 -1.79-4.76e-4 -2.72-0.00399-23.8 0.00149-47.5 0.00999-71.3 9.07e-4 -2.56 0.00181-5.12 0.00272-7.67 6.01e-4 -1.7 0.00121-3.39 0.00183-5.09 0.00422-11.8 0.0048-23.7 0.00289-35.5-0.00244-15.2 0.00163-30.5 0.0172-45.7 0.00805-8.06 0.0107-16.1 0.00536-24.2-0.00333-6.02 0.00379-12 0.015-18.1 0.00293-2.44 0.00249-4.87-0.00164-7.31-0.0051-3.31 0.00207-6.62 0.0123-9.92-0.0044-0.949-0.00879-1.9-0.0133-2.88 0.0486-8.22 0.478-15.9 6.36-22.1 7.71-6.6 14.4-8.78 24.4-8.76z" fill="#9944FC"/>
<path transform="translate(637 505)" d="m0 0c1.38 0.871 2.74 1.78 4.06 2.75 0.949 0.619 1.9 1.24 2.88 1.88 4.79 4.79 7.25 10.4 7.25 17.2 0.00302 0.799 0.00603 1.6 0.00914 2.42-0.00177 0.874-0.00354 1.75-0.00536 2.65 0.00205 0.936 0.00411 1.87 0.00622 2.84 0.00569 3.16 0.00421 6.32 0.00279 9.48 0.00258 2.28 0.0056 4.56 9e-3 6.83 0.00809 6.28 0.00986 12.6 0.0106 18.8 0.00166 6.07 0.00797 12.1 0.0141 18.2 0.0161 16.3 0.022 32.5 0.0267 48.8 0.00234 7.69 0.00594 15.4 0.0097 23.1 0.0128 26.3 0.0236 52.7 0.027 79 2.22e-4 1.65 4.43e-4 3.31 6.65e-4 4.96 2.21e-4 1.66 4.41e-4 3.31 6.61e-4 4.97 4.43e-4 3.32 8.9e-4 6.65 0.00134 9.97 1.09e-4 0.824 2.19e-4 1.65 3.31e-4 2.5 0.00363 26.7 0.0196 53.5 0.0429 80.2 0.0246 28.3 0.0383 56.5 0.0395 84.8 1.71e-4 3.1 3.87e-4 6.2 6.34e-4 9.3 8.37e-5 1.15 8.37e-5 1.15 1.69e-4 2.31 0.00115 12.3 0.0122 24.6 0.0267 36.9 0.0144 12.4 0.0176 24.7 0.00956 37.1-0.00407 6.69-0.00294 13.4 0.0111 20.1 0.0127 6.13 0.0116 12.3-5.91e-4 18.4-0.00196 2.22 0.00116 4.44 0.00984 6.65 0.0111 3.01 0.00363 6.03-0.00839 9.04 0.0076 0.862 0.0152 1.72 0.023 2.61-0.0483 5.6-0.68 11.1-3.39 16.1-0.99 0.33-1.98 0.66-3 1-0.155 0.897-0.155 0.897-0.312 1.81-1.11 3.53-3.54 4.46-6.69 6.19-5.08 1.16-10.1 1.22-15.3 1.25-0.804 0.0206-1.61 0.0412-2.44 0.0625-9.08 0.0584-16-2.22-22.6-8.48-4.12-4.56-5.78-9.81-5.79-15.8-0.00302-0.795-0.00603-1.59-0.00914-2.41 0.00177-0.869 0.00354-1.74 0.00536-2.63-0.00205-0.93-0.00411-1.86-0.00622-2.82-0.00569-3.14-0.00421-6.28-0.00279-9.42-0.00258-2.26-0.0056-4.53-9e-3 -6.79-0.00809-6.24-0.00986-12.5-0.0106-18.7-0.00166-6.04-0.00797-12.1-0.0141-18.1-0.0161-16.2-0.022-32.3-0.0267-48.5-0.00234-7.65-0.00594-15.3-0.0097-23-0.0128-26.2-0.0236-52.4-0.027-78.6-2.22e-4 -1.64-4.43e-4 -3.29-6.65e-4 -4.93-2.21e-4 -1.65-4.41e-4 -3.3-6.61e-4 -4.94-4.43e-4 -3.31-8.9e-4 -6.61-0.00134-9.92-1.09e-4 -0.82-2.19e-4 -1.64-3.31e-4 -2.48-0.00363-26.6-0.0196-53.2-0.0429-79.7-0.0246-28.1-0.0383-56.2-0.0395-84.3-1.71e-4 -3.08-3.87e-4 -6.17-6.34e-4 -9.25-5.58e-5 -0.759-1.12e-4 -1.52-1.69e-4 -2.3-0.00115-12.2-0.0122-24.4-0.0267-36.7-0.0144-12.3-0.0176-24.6-0.00956-36.9 0.00406-6.66 0.00295-13.3-0.0111-20-0.0127-6.09-0.0116-12.2 5.91e-4 -18.3 0.00196-2.2-0.00115-4.41-0.00984-6.61-0.0111-3-0.00362-5.99 0.00839-8.99-0.0076-0.855-0.0152-1.71-0.023-2.59 0.0647-7.49 1.26-16.2 6.73-21.8 10.5-8.71 26-11.2 38.6-5.13z" fill="#9944FC"/>
<path transform="translate(1085,503)" d="m0 0c3.15-0.118 6.29-0.188 9.44-0.25 1.32-0.0503 1.32-0.0503 2.66-0.102 7.72-0.114 15.2 1.86 20.9 7.35v2c0.99 0.33 1.98 0.66 3 1 3.72 6.28 4.58 12.7 4.5 19.8 0.00872 1.41 0.00872 1.41 0.0176 2.86 0.0146 3.15 7.36e-4 6.29-0.013 9.44 0.00461 2.28 0.011 4.57 0.0189 6.85 0.0167 6.26 0.00845 12.5-0.00394 18.8-0.00812 6.06 0.00254 12.1 0.0126 18.2 0.021 13.2 0.0192 26.3 0.00768 39.5-0.0101 11.5-0.0127 23-0.00791 34.6 3.06e-4 0.765 6.11e-4 1.53 9.26e-4 2.32 0.00125 3.1 0.00252 6.21 0.00384 9.31 0.0122 29.1 0.00115 58.2-0.0204 87.3-0.019 25.9-0.0173 51.7 0.00184 77.6 0.0214 29.1 0.0299 58.1 0.0176 87.2-0.00128 3.1-0.00253 6.2-0.00377 9.29-4.74e-4 1.14-4.74e-4 1.14-9.59e-4 2.31-0.00455 11.5 7.68e-4 23 0.0109 34.5 0.0114 13.1 0.00858 26.2-0.0131 39.3-0.0107 6.68-0.0146 13.4-0.0014 20 0.0119 6.12 0.00537 12.2-0.0159 18.3-0.00447 2.21-0.00219 4.43 0.0075 6.64 0.0122 3.01-3.21e-4 6.02-0.0189 9.02 0.014 1.29 0.014 1.29 0.0284 2.6-0.091 7.38-2.02 14.1-6.72 19.9-0.744 0.617-1.49 1.23-2.25 1.87-0.741 0.641-1.48 1.28-2.25 1.94-5.12 3.3-11.2 2.71-17.1 2.75-1.28 0.0309-1.28 0.0309-2.59 0.0625-8.19 0.0496-15.6-1.44-21.7-7.31-6.34-6.34-7.21-13.3-7.27-22 0.00468-0.849 0.00936-1.7 0.0142-2.57-0.00291-0.929-0.00581-1.86-0.00881-2.82-0.00729-3.11-3.63e-4 -6.21 0.00652-9.32-0.0023-2.25-0.00548-4.51-0.00945-6.76-0.00835-6.19-0.00422-12.4 0.00197-18.6 0.00406-5.99-0.00127-12-0.00629-18-0.0105-13-0.00962-26-0.00384-39 0.00503-11.4 0.00634-22.8 0.00395-34.1-1.53e-4 -0.755-3.06e-4 -1.51-4.63e-4 -2.29-6.23e-4 -3.06-0.00126-6.13-0.00192-9.19-0.00612-28.7-5.72e-4 -57.5 0.0102-86.2 0.00949-25.5 0.00864-51.1-9.22e-4 -76.6-0.0107-28.7-0.015-57.4-0.00878-86.1 6.41e-4 -3.06 0.00127-6.12 0.00189-9.18 1.58e-4 -0.753 3.16e-4 -1.51 4.79e-4 -2.28 0.00227-11.4-3.84e-4 -22.7-0.00544-34.1-0.00572-12.9-0.00429-25.9 0.00656-38.8 0.00535-6.6 0.00731-13.2 7.02e-4 -19.8-0.00596-6.04-0.00269-12.1 0.00796-18.1 0.00223-2.18 0.0011-4.37-0.00375-6.55-0.00609-2.97 1.62e-4 -5.94 0.00944-8.91-0.00468-0.847-0.00936-1.69-0.0142-2.57 0.0575-9.22 1.16-17.1 7.18-24.3 2.85-2.52 5.59-3.47 9.26-4.31 0.601-0.177 1.2-0.353 1.82-0.535 0.33-0.66 0.66-1.32 1-2zm-17 17 1 2z" fill="#9944FC"/>
<path transform="translate(741 533)" d="m0 0c0.959-0.0245 1.92-0.049 2.91-0.0742 6.26-0.0258 9.95 0.836 15.1 4.45v2c0.742 0.186 1.49 0.371 2.25 0.562 3.76 1.96 5.1 4.61 6.75 8.44 1.18 3.77 1.34 7.61 1.55 11.5 0.0421 0.748 0.0843 1.5 0.128 2.27 0.46 8.9 0.457 17.8 0.445 26.7 0.00115 1.91 0.00274 3.83 0.00473 5.74 0.00414 5.21 0.00213 10.4-9.86e-4 15.6-0.00227 5.64 0.00124 11.3 0.00398 16.9 0.00443 11 0.00349 22 5.87e-4 33.1-0.00226 8.96-0.00256 17.9-0.00148 26.9 1.53e-4 1.28 3.06e-4 2.56 4.64e-4 3.87 3.2e-4 2.6 6.44e-4 5.19 9.73e-4 7.79 0.00277 23.6-9.7e-5 47.3-0.00534 70.9-0.00475 21.5-0.00432 43.1 4.61e-4 64.6 0.00536 24.2 0.00746 48.5 0.00439 72.7-3.19e-4 2.59-6.33e-4 5.17-9.43e-4 7.76-2.31e-4 1.91-2.31e-4 1.91-4.68e-4 3.86-8.62e-4 8.95 5.9e-4 17.9 0.00295 26.8 0.00281 10.9 0.00203 21.8-0.00328 32.7-0.00262 5.56-0.00367 11.1-3.51e-4 16.7 3e-3 5.1 0.00131 10.2-0.00398 15.3-0.00111 1.84-5.67e-4 3.67 0.00188 5.51 0.0458 37.3 0.0458 37.3-6.96 44.6-6.88 5.59-14 5.28-22.5 5.29-0.908 0.0122-1.82 0.0245-2.75 0.0371-13.1 0.0283-13.1 0.0283-18.2-4.1-0.557-0.701-1.11-1.4-1.69-2.12-0.577-0.701-1.15-1.4-1.75-2.12-1.25-1.88-1.25-1.88-1.25-3.88h-2c-3.3-5.72-3.15-11.9-3.13-18.3-0.00235-0.83-0.0047-1.66-0.00713-2.51-0.00667-2.79-0.00623-5.57-0.00582-8.36-0.0033-2.02-0.00703-4.03-0.0111-6.05-0.01-5.54-0.0137-11.1-0.0164-16.6-0.0039-5.98-0.0135-12-0.0222-17.9-0.0188-13.7-0.029-27.5-0.0375-41.2-0.00421-6.8-0.00943-13.6-0.0147-20.4-0.0179-23.3-0.0329-46.5-0.0403-69.8-4.75e-4 -1.46-9.51e-4 -2.92-0.00143-4.38-2.36e-4 -0.724-4.73e-4 -1.45-7.16e-4 -2.19-0.0012-3.67-0.00242-7.34-0.00364-11-2.4e-4 -0.728-4.8e-4 -1.46-7.28e-4 -2.21-0.00789-23.6-0.0313-47.2-0.0638-70.8-0.0343-25-0.054-49.9-0.0573-74.9-4.18e-4 -2.74-8.97e-4 -5.48-0.00142-8.22-1.23e-4 -0.675-2.46e-4 -1.35-3.73e-4 -2.04-0.00233-10.9-0.018-21.7-0.0385-32.6-0.0203-10.9-0.0254-21.8-0.0162-32.7 0.00455-5.91 0.00261-11.8-0.0168-17.7-0.0176-5.41-0.0167-10.8-0.0011-16.2 0.00238-1.96-0.00199-3.91-0.0138-5.87-0.117-20.6-0.117-20.6 6.62-29.7 0.726-0.701 1.45-1.4 2.2-2.12 0.718-0.722 1.44-1.44 2.18-2.19 6.15-4.44 13.2-4.18 20.5-4.19zm-29 17.4 1 3z" fill="#9944FC"/>
<path transform="translate(878 596)" d="m0 0c6.33 4.98 9.29 10.4 10.4 18.3 0.704 6.66 0.615 13.3 0.613 20 0.0033 1.5 0.00703 2.99 0.0111 4.49 0.00996 4.09 0.0137 8.19 0.0164 12.3 0.00392 4.42 0.0135 8.84 0.0222 13.3 0.0197 10.7 0.0298 21.3 0.0387 32 0.00439 5.03 0.00975 10.1 0.015 15.1 0.017 16.7 0.0315 33.4 0.0387 50.2 0.00191 4.33 0.00383 8.67 0.00579 13 4.84e-4 1.08 9.67e-4 2.15 0.00147 3.26 0.0083 17.5 0.0336 34.9 0.0661 52.4 0.0331 17.9 0.0511 35.9 0.0543 53.8 0.00216 10.1 0.0109 20.1 0.0365 30.2 0.0217 8.57 0.0297 17.1 0.02 25.7-0.00454 4.37-0.00269 8.74 0.0168 13.1 0.0177 4.01 0.0166 8.01 0.0011 12-0.00237 1.44 0.0019 2.88 0.0138 4.33 0.0871 11.2-0.685 22.5-8.51 31.2-6.73 5.15-12.6 5.2-20.8 5.25-1.28 0.0309-1.28 0.0309-2.59 0.0625-7.68 0.0466-15.5-1.22-21.3-6.71-7.36-8.42-8.27-16.2-8.14-27-0.00477-1.55-0.0122-3.1-0.0219-4.65-0.0192-4.24-0.0011-8.47 0.0233-12.7 0.0198-4.58 0.00487-9.16-0.00565-13.7-0.0151-8.96 0.00177-17.9 0.0296-26.9 0.0312-10.4 0.0309-20.9 0.0295-31.3-0.0015-18.6 0.026-37.2 0.0696-55.9 0.0423-18.1 0.0635-36.1 0.0615-54.2-1.2e-4 -1.11-2.4e-4 -2.23-3.63e-4 -3.37-1.21e-4 -1.11-2.42e-4 -2.22-3.67e-4 -3.37-0.00207-20.6 0.0156-41.1 0.0425-61.7 0.00904-7.27 0.0122-14.5 0.0136-21.8 0.00205-8.86 0.0155-17.7 0.043-26.6 0.0138-4.52 0.023-9.04 0.0192-13.6-0.00329-4.14 0.00731-8.28 0.0289-12.4 0.00543-1.5 0.00584-2.99 6.98e-4 -4.49-0.0349-11.4 1.08-20.5 9.41-28.9 10.7-7.4 29.4-7.89 40.1-0.559z" fill="#9944FC"/>
<path transform="translate(976 622)" d="m0 0c1.02-0.0206 2.04-0.0412 3.09-0.0625 7.6-0.0393 12.2 1.06 18.6 5.31v2c0.99 0.33 1.98 0.66 3 1 5.17 6.99 5.72 14.1 5.65 22.5 0.00906 1.23 0.0181 2.45 0.0275 3.71 0.02 3.38 0.0179 6.75 0.00611 10.1-0.00724 3.65 0.0144 7.3 0.0324 11 0.0307 7.15 0.0352 14.3 0.031 21.4-0.00378 8.34 0.0198 16.7 0.0448 25 0.0437 14.9 0.0646 29.8 0.0717 44.7 0.00689 14.4 0.027 28.8 0.0635 43.2 0.00224 0.887 0.00448 1.77 0.00678 2.69 0.00903 3.57 0.0181 7.13 0.0272 10.7 0.037 14.6 0.064 29.2 0.0892 43.8 0.00571 3.32 0.0118 6.64 0.0181 9.95 0.0165 8.73 0.0295 17.5 0.0331 26.2 0.00151 3.61 0.00447 7.21 0.0119 10.8 0.0906 46.2 0.0906 46.2-6.55 54.1-0.846 0.701-1.69 1.4-2.56 2.12-0.99 0.866-0.99 0.866-2 1.75-5.21 3.25-12 2.43-17.9 2.44-0.968 0.0122-1.94 0.0245-2.93 0.0371-8.22 0.0168-14.3-0.716-20.6-6.45-5.69-6.16-7.76-11.9-7.77-20.3-0.00322-1.09-0.00645-2.19-0.00977-3.32 0.00155-1.2 0.0031-2.39 0.00469-3.63-0.0034-1.91-0.0034-1.91-0.00687-3.87-0.00612-3.54-0.00598-7.08-0.00481-10.6 2.04e-4 -3.82-0.00531-7.64-0.0101-11.5-0.00831-7.48-0.0111-15-0.0116-22.4-4.75e-4 -6.08-0.00253-12.2-0.0057-18.2-0.0088-17.2-0.0134-34.4-0.0127-51.7 4e-5 -0.928 7.99e-5 -1.86 1.21e-4 -2.81 4.09e-5 -0.929 8.18e-5 -1.86 1.24e-4 -2.82 4.07e-4 -15.1-0.00917-30.2-0.0233-45.2-0.0143-15.5-0.0213-30.9-0.0204-46.4 3.32e-4 -8.69-0.00244-17.4-0.0132-26.1-0.00908-7.4-0.0113-14.8-0.00449-22.2 0.00328-3.78 0.00328-7.55-0.00535-11.3-0.00925-4.09-0.00312-8.17 0.00463-12.3-0.00514-1.2-0.0103-2.4-0.0156-3.64 0.0046-1.09 0.0092-2.18 0.0139-3.3-2.17e-4 -0.944-4.35e-4 -1.89-6.59e-4 -2.86 0.25-2.37 0.25-2.37 2.25-5.37 0.0825-0.722 0.165-1.44 0.25-2.19 1.16-4.34 3.7-7.56 6.75-10.8 2.88-1.5 2.88-1.5 5-2v-2c5.04-1.46 10.1-1.22 15.3-1.25z" fill="#9945FC"/>
<path transform="translate(633,589)" d="m0 0c2.49 3.74 2.25 5.66 2.25 10.1 0.00231 0.735 0.00462 1.47 0.00699 2.23 0.00533 2.48-0.00371 4.96-0.0126 7.44 8.72e-4 1.79 0.00262 3.58 0.00518 5.37 0.00449 4.93-0.00355 9.86-0.0136 14.8-0.00861 5.31-0.00572 10.6-0.0042 15.9 0.00105 9.21-0.00524 18.4-0.0165 27.6-0.0162 13.3-0.0215 26.6-0.024 39.9-0.00438 21.6-0.0177 43.2-0.0366 64.8-0.0183 21-0.0325 42-0.041 62.9-5.25e-4 1.29-0.00105 2.59-0.00159 3.92-0.00261 6.48-0.00514 13-0.00762 19.5-0.0207 53.8-0.056 108-0.101 161h-3c0.33-144 0.66-288 1-436z" fill="#9A46FC"/>
<path transform="translate(849,990)" d="m0 0c3.88 1.88 3.88 1.88 5 3 0.0408 2 0.0425 4 0 6 0.66 0.33 1.32 0.66 2 1-3 1-3 1-5.69 0-2.31-2-2.31-2-2.69-5.62 0.375-3.38 0.375-3.38 1.38-4.38z" fill="#9A46FC"/>
<path transform="translate(768,1045)" d="m0 0c1.14 3.41 0.867 4-0.438 7.19-0.287 0.715-0.575 1.43-0.871 2.17-0.228 0.543-0.456 1.09-0.691 1.64-0.66-0.99-1.32-1.98-2-3h-2c-0.33-1.65-0.66-3.3-1-5 0.99 0.33 1.98 0.66 3 1v2h3c-0.33-1.65-0.66-3.3-1-5 0.66-0.33 1.32-0.66 2-1z" fill="#9A46FC"/>
<path transform="translate(615,502)" d="m0 0h8v1h-8v-1z" fill="#9944FD"/>
<path transform="translate(975,621)" d="m0 0h6v1h-6v-1z" fill="#9944FD"/>
</svg>
